<?xml version="1.0" standalone="no"?>
<!DOCTYPE svg PUBLIC "-//W3C//DTD SVG 20010904//EN"
 "http://www.w3.org/TR/2001/REC-SVG-20010904/DTD/svg10.dtd">
<svg version="1.0" xmlns="http://www.w3.org/2000/svg"
 width="900.000000pt" height="900.000000pt" viewBox="0 0 900.000000 900.000000"
 preserveAspectRatio="xMidYMid meet">
<metadata>
Created by potrace 1.10, written by Peter Selinger 2001-2011
</metadata>
<g transform="translate(0.000000,900.000000) scale(0.100000,-0.100000)"
fill="#000000" stroke="none">
<path d="M4110 8124 c-92 -64 -103 -82 -81 -136 9 -22 16 -44 61 -198 12 -41
25 -86 30 -100 5 -14 18 -59 30 -100 12 -41 25 -84 30 -95 5 -11 12 -36 16
-55 3 -19 10 -41 15 -50 4 -8 15 -42 24 -75 9 -33 23 -78 30 -100 7 -22 23
-74 35 -115 12 -41 25 -84 29 -95 5 -11 16 -47 26 -80 9 -33 23 -78 30 -100 7
-22 21 -67 30 -100 16 -55 57 -189 90 -290 7 -22 21 -67 30 -100 9 -33 23 -78
30 -100 7 -22 21 -67 30 -100 25 -86 56 -187 65 -210 7 -18 35 -110 62 -205 6
-19 16 -53 23 -75 7 -22 21 -67 30 -100 9 -33 23 -78 30 -100 7 -22 16 -55 20
-72 4 -18 11 -35 16 -38 5 -4 9 -18 9 -32 0 -14 6 -39 14 -56 12 -30 22 -64
47 -162 6 -21 14 -44 18 -50 5 -5 11 -23 14 -40 2 -16 9 -43 15 -60 9 -27 41
-133 89 -295 9 -30 22 -73 28 -95 11 -37 22 -74 61 -207 8 -27 20 -69 28 -95
7 -27 21 -73 30 -103 8 -30 22 -77 30 -105 7 -27 19 -68 26 -90 14 -47 10
-120 -7 -120 -11 0 -63 68 -63 83 0 4 -29 38 -65 74 -36 37 -65 73 -65 79 0 7
-30 45 -67 84 -88 93 -164 180 -202 230 -17 22 -37 47 -46 56 -8 9 -15 20 -15
26 0 9 -22 36 -90 110 -17 18 -30 36 -30 41 0 5 -24 33 -52 64 -177 187 -208
224 -238 288 -4 8 -17 16 -29 18 -15 2 -21 9 -17 18 3 8 -1 17 -9 20 -8 3 -17
15 -21 27 -4 11 -36 53 -73 92 -83 91 -119 136 -165 208 -20 31 -42 57 -49 57
-7 0 -23 19 -37 41 -14 23 -40 57 -57 77 -18 21 -33 47 -33 58 0 12 -9 33 -20
47 -11 14 -20 28 -20 32 0 4 -19 26 -41 49 -46 45 -119 148 -119 166 0 7 -18
32 -39 57 -22 24 -43 59 -47 76 -3 17 -10 38 -15 47 -4 8 -10 23 -13 33 -3 11
-15 21 -26 24 -19 5 -60 71 -60 97 0 7 -6 19 -13 25 -8 6 -19 29 -26 51 -6 22
-16 40 -21 40 -4 0 -18 19 -30 43 -12 23 -33 58 -46 77 -16 22 -23 42 -20 57
4 12 0 28 -7 35 -6 7 -21 38 -31 68 -11 30 -32 79 -48 108 -15 29 -28 60 -28
68 0 20 -27 79 -58 123 -15 24 -21 43 -17 61 4 18 -1 33 -15 50 -11 12 -20 32
-20 43 0 11 -18 52 -41 91 -65 114 -68 120 -74 148 -3 15 -16 39 -30 54 -17
18 -23 34 -19 46 3 11 -1 27 -9 36 -8 9 -18 48 -22 87 -4 38 -11 79 -15 91 -7
18 -5 23 13 29 44 15 -118 26 -403 28 -291 2 -290 2 -425 -39 -252 -78 -438
-298 -495 -589 -6 -27 -15 -77 -20 -110 -7 -40 -10 -962 -8 -2720 l3 -2660 30
-45 c18 -26 49 -54 74 -68 l43 -22 2681 3 c1994 3 2698 6 2745 15 201 38 384
130 492 248 85 93 147 228 179 392 8 37 11 893 11 2752 0 2636 0 2699 -19
2743 -19 44 -66 89 -106 101 -11 3 -137 8 -280 11 -353 7 -740 23 -855 35 -52
6 -149 15 -215 20 -195 16 -395 41 -610 75 -49 8 -103 16 -120 19 -105 16
-212 35 -225 40 -8 3 -42 10 -75 16 -129 21 -448 93 -640 145 -33 9 -80 21
-105 26 -25 6 -54 14 -65 19 -11 5 -38 14 -60 19 -59 15 -136 38 -168 50 -40
15 -57 13 -97 -15z m1180 -4353 c0 -20 -2 -21 -15 -11 -16 13 -20 42 -8 53 10
10 23 -14 23 -42z m608 -832 c3 -166 -11 -216 -70 -261 -64 -47 -74 -48 -374
-48 -316 0 -324 1 -392 71 -37 38 -46 81 -41 198 4 71 7 83 34 117 62 76 54
75 470 72 l370 -3 3 -146z"/>
</g>
</svg>
