<svg xmlns="http://www.w3.org/2000/svg" xmlns:xlink="http://www.w3.org/1999/xlink" version="1.2" baseProfile="tiny" x="0px" y="0px" viewBox="0 0 100 100" xml:space="preserve"><path d="M27.5,57.5h15c1.381,0,2.5-1.119,2.5-2.5V42.5c0-1.381-1.119-2.5-2.5-2.5h-15c-1.381,0-2.5,1.119-2.5,2.5V55  C25,56.381,26.119,57.5,27.5,57.5z M30,45h10v7.5H30V45z"/><path d="M57.5,57.5h15c1.381,0,2.5-1.119,2.5-2.5V42.5c0-1.381-1.119-2.5-2.5-2.5h-15c-1.381,0-2.5,1.119-2.5,2.5V55  C55,56.381,56.119,57.5,57.5,57.5z M60,45h10v7.5H60V45z"/><path d="M57.5,82.5h15c1.381,0,2.5-1.119,2.5-2.5V67.5c0-1.381-1.119-2.5-2.5-2.5h-15c-1.381,0-2.5,1.119-2.5,2.5V80  C55,81.381,56.119,82.5,57.5,82.5z M60,70h10v7.5H60V70z"/><path d="M91.118,25.264l-40-20c-0.704-0.353-1.532-0.353-2.236,0l-40,20c-1.037,0.518-1.582,1.682-1.315,2.81S8.84,30,10,30h2.5  v62.5c0,1.381,1.119,2.5,2.5,2.5h70c1.381,0,2.5-1.119,2.5-2.5V30H90c1.16,0,2.167-0.797,2.433-1.926S92.155,25.782,91.118,25.264z   M50,10.295L79.41,25H20.59L50,10.295z M40,90H30V70h10V90z M82.5,90H45V67.5c0-1.381-1.119-2.5-2.5-2.5h-15  c-1.381,0-2.5,1.119-2.5,2.5V90h-7.5V30h65V90z"/></svg>